<mxfile host="65bd71144e">
    <diagram id="BAT8wkBB-ROcn9GxOi_n" name="ページ1">
        <mxGraphModel dx="1198" dy="524" grid="1" gridSize="10" guides="1" tooltips="1" connect="1" arrows="1" fold="1" page="1" pageScale="1" pageWidth="827" pageHeight="1169" math="0" shadow="0">
            <root>
                <mxCell id="0"/>
                <mxCell id="1" parent="0"/>
                <mxCell id="236" value="" style="endArrow=none;html=1;entryX=0.5;entryY=1;entryDx=0;entryDy=0;" parent="1" target="203" edge="1">
                    <mxGeometry width="50" height="50" relative="1" as="geometry">
                        <mxPoint x="1780" y="1530" as="sourcePoint"/>
                        <mxPoint x="1280" y="580" as="targetPoint"/>
                    </mxGeometry>
                </mxCell>
                <mxCell id="230" value="" style="endArrow=none;html=1;" parent="1" edge="1">
                    <mxGeometry width="50" height="50" relative="1" as="geometry">
                        <mxPoint x="1240.17" y="1596.25" as="sourcePoint"/>
                        <mxPoint x="1240.17" y="186.25" as="targetPoint"/>
                    </mxGeometry>
                </mxCell>
                <mxCell id="229" value="" style="endArrow=none;html=1;" parent="1" edge="1">
                    <mxGeometry width="50" height="50" relative="1" as="geometry">
                        <mxPoint x="1076" y="1596.25" as="sourcePoint"/>
                        <mxPoint x="1076" y="186.25" as="targetPoint"/>
                    </mxGeometry>
                </mxCell>
                <mxCell id="50" value="" style="endArrow=none;html=1;" parent="1" target="51" edge="1">
                    <mxGeometry width="50" height="50" relative="1" as="geometry">
                        <mxPoint x="340" y="430" as="sourcePoint"/>
                        <mxPoint x="340" y="1080" as="targetPoint"/>
                    </mxGeometry>
                </mxCell>
                <mxCell id="2" value="" style="endArrow=none;html=1;" parent="1" target="86" edge="1">
                    <mxGeometry width="50" height="50" relative="1" as="geometry">
                        <mxPoint x="924" y="323" as="sourcePoint"/>
                        <mxPoint x="924" y="1150" as="targetPoint"/>
                    </mxGeometry>
                </mxCell>
                <mxCell id="3" value="Actor" style="shape=umlActor;verticalLabelPosition=bottom;verticalAlign=top;html=1;" parent="1" vertex="1">
                    <mxGeometry x="190" y="135" width="30" height="60" as="geometry"/>
                </mxCell>
                <mxCell id="4" value="Update&lt;br&gt;&lt;div&gt;Controller&lt;/div&gt;" style="html=1;whiteSpace=wrap;" parent="1" vertex="1">
                    <mxGeometry x="285" y="140" width="110" height="50" as="geometry"/>
                </mxCell>
                <mxCell id="5" value="Update&lt;span style=&quot;background-color: transparent;&quot;&gt;Form&lt;/span&gt;" style="html=1;whiteSpace=wrap;" parent="1" vertex="1">
                    <mxGeometry x="490" y="140" width="110" height="50" as="geometry"/>
                </mxCell>
                <mxCell id="6" value="Update&lt;span style=&quot;background-color: transparent;&quot;&gt;Helper&lt;/span&gt;" style="html=1;whiteSpace=wrap;" parent="1" vertex="1">
                    <mxGeometry x="680" y="140" width="110" height="50" as="geometry"/>
                </mxCell>
                <mxCell id="7" value="Product&lt;span style=&quot;background-color: transparent;&quot;&gt;Service&lt;/span&gt;" style="html=1;whiteSpace=wrap;" parent="1" vertex="1">
                    <mxGeometry x="870" y="140" width="110" height="50" as="geometry"/>
                </mxCell>
                <mxCell id="8" value="Stock&lt;div&gt;&lt;span style=&quot;background-color: transparent;&quot;&gt;Repository&lt;/span&gt;&lt;/div&gt;" style="html=1;whiteSpace=wrap;" parent="1" vertex="1">
                    <mxGeometry x="1545" y="140" width="110" height="50" as="geometry"/>
                </mxCell>
                <mxCell id="9" value="" style="sketch=0;verticalLabelPosition=bottom;sketch=0;aspect=fixed;html=1;verticalAlign=top;strokeColor=none;fillColor=#000000;align=center;outlineConnect=0;pointerEvents=1;shape=mxgraph.citrix2.site_database;" parent="1" vertex="1">
                    <mxGeometry x="1884.6" y="150" width="45.395" height="50" as="geometry"/>
                </mxCell>
                <mxCell id="11" value="" style="endArrow=none;html=1;" parent="1" edge="1">
                    <mxGeometry width="50" height="50" relative="1" as="geometry">
                        <mxPoint x="210" y="1630" as="sourcePoint"/>
                        <mxPoint x="210" y="220" as="targetPoint"/>
                    </mxGeometry>
                </mxCell>
                <mxCell id="12" value="" style="endArrow=classic;html=1;" parent="1" edge="1">
                    <mxGeometry width="50" height="50" relative="1" as="geometry">
                        <mxPoint x="210" y="240" as="sourcePoint"/>
                        <mxPoint x="335" y="240" as="targetPoint"/>
                    </mxGeometry>
                </mxCell>
                <mxCell id="13" value="" style="endArrow=none;html=1;entryX=0.5;entryY=1;entryDx=0;entryDy=0;" parent="1" source="30" target="4" edge="1">
                    <mxGeometry width="50" height="50" relative="1" as="geometry">
                        <mxPoint x="340" y="360" as="sourcePoint"/>
                        <mxPoint x="340" y="230" as="targetPoint"/>
                    </mxGeometry>
                </mxCell>
                <mxCell id="15" value="" style="endArrow=classic;html=1;entryX=0;entryY=1;entryDx=0;entryDy=0;" parent="1" edge="1">
                    <mxGeometry width="50" height="50" relative="1" as="geometry">
                        <mxPoint x="340" y="250" as="sourcePoint"/>
                        <mxPoint x="917.5" y="250" as="targetPoint"/>
                    </mxGeometry>
                </mxCell>
                <mxCell id="16" value="" style="endArrow=none;html=1;entryX=0.387;entryY=0.019;entryDx=0;entryDy=0;entryPerimeter=0;" parent="1" source="86" edge="1">
                    <mxGeometry width="50" height="50" relative="1" as="geometry">
                        <mxPoint x="923" y="663" as="sourcePoint"/>
                        <mxPoint x="921.5700000000002" y="1560.9499999999998" as="targetPoint"/>
                    </mxGeometry>
                </mxCell>
                <mxCell id="17" value="" style="endArrow=none;html=1;exitX=0.5;exitY=1;exitDx=0;exitDy=0;" parent="1" source="7" edge="1">
                    <mxGeometry width="50" height="50" relative="1" as="geometry">
                        <mxPoint x="925" y="190" as="sourcePoint"/>
                        <mxPoint x="925.566037735849" y="250" as="targetPoint"/>
                    </mxGeometry>
                </mxCell>
                <mxCell id="18" value="" style="endArrow=classic;html=1;entryX=0;entryY=0.75;entryDx=0;entryDy=0;exitX=0.142;exitY=0.2;exitDx=0;exitDy=0;exitPerimeter=0;" parent="1" source="73" target="122" edge="1">
                    <mxGeometry width="50" height="50" relative="1" as="geometry">
                        <mxPoint x="935" y="270" as="sourcePoint"/>
                        <mxPoint x="1170" y="270" as="targetPoint"/>
                    </mxGeometry>
                </mxCell>
                <mxCell id="20" value="" style="endArrow=none;html=1;entryX=0.545;entryY=1;entryDx=0;entryDy=0;entryPerimeter=0;" parent="1" source="88" target="8" edge="1">
                    <mxGeometry width="50" height="50" relative="1" as="geometry">
                        <mxPoint x="1605" y="1525" as="sourcePoint"/>
                        <mxPoint x="1604.9999999999998" y="380" as="targetPoint"/>
                    </mxGeometry>
                </mxCell>
                <mxCell id="21" value="" style="endArrow=classic;html=1;entryX=0;entryY=1;entryDx=0;entryDy=0;exitX=0.197;exitY=-0.178;exitDx=0;exitDy=0;exitPerimeter=0;" parent="1" source="122" target="74" edge="1">
                    <mxGeometry width="50" height="50" relative="1" as="geometry">
                        <mxPoint x="1560" y="297.5" as="sourcePoint"/>
                        <mxPoint x="1720" y="297.5" as="targetPoint"/>
                    </mxGeometry>
                </mxCell>
                <mxCell id="22" value="" style="endArrow=none;html=1;entryX=0.661;entryY=1.2;entryDx=0;entryDy=0;entryPerimeter=0;" parent="1" source="74" edge="1">
                    <mxGeometry width="50" height="50" relative="1" as="geometry">
                        <mxPoint x="1907.1677953703704" y="310" as="sourcePoint"/>
                        <mxPoint x="1906.586095" y="200" as="targetPoint"/>
                        <Array as="points"/>
                    </mxGeometry>
                </mxCell>
                <mxCell id="23" value="" style="endArrow=none;html=1;" parent="1" source="117" edge="1">
                    <mxGeometry width="50" height="50" relative="1" as="geometry">
                        <mxPoint x="1906.6" y="1515" as="sourcePoint"/>
                        <mxPoint x="1906.1000000000001" y="310" as="targetPoint"/>
                        <Array as="points"/>
                    </mxGeometry>
                </mxCell>
                <mxCell id="24" value="" style="endArrow=block;startArrow=none;endFill=0;startFill=0;endSize=8;html=1;verticalAlign=bottom;dashed=1;labelBackgroundColor=none;entryX=0.825;entryY=-0.222;entryDx=0;entryDy=0;entryPerimeter=0;exitX=1;exitY=1;exitDx=0;exitDy=0;" parent="1" source="74" target="122" edge="1">
                    <mxGeometry width="160" relative="1" as="geometry">
                        <mxPoint x="1720" y="346.81" as="sourcePoint"/>
                        <mxPoint x="1560" y="346.81" as="targetPoint"/>
                    </mxGeometry>
                </mxCell>
                <mxCell id="25" value="SQL(SELECT)" style="text;html=1;align=center;verticalAlign=middle;resizable=0;points=[];autosize=1;strokeColor=none;fillColor=none;" parent="1" vertex="1">
                    <mxGeometry x="1480" y="260" width="100" height="30" as="geometry"/>
                </mxCell>
                <mxCell id="26" value="List&amp;lt;Product&amp;gt;" style="text;html=1;align=center;verticalAlign=middle;resizable=0;points=[];autosize=1;strokeColor=none;fillColor=none;" parent="1" vertex="1">
                    <mxGeometry x="1445" y="350" width="100" height="30" as="geometry"/>
                </mxCell>
                <mxCell id="27" value="List&amp;lt;Product&amp;gt;" style="text;html=1;align=center;verticalAlign=middle;resizable=0;points=[];autosize=1;strokeColor=none;fillColor=none;" parent="1" vertex="1">
                    <mxGeometry x="940" y="350" width="100" height="30" as="geometry"/>
                </mxCell>
                <mxCell id="28" value="" style="endArrow=block;startArrow=none;endFill=0;startFill=0;endSize=8;html=1;verticalAlign=bottom;dashed=1;labelBackgroundColor=none;entryX=0.25;entryY=0;entryDx=0;entryDy=0;exitX=0.75;exitY=1;exitDx=0;exitDy=0;" parent="1" edge="1">
                    <mxGeometry width="160" relative="1" as="geometry">
                        <mxPoint x="920" y="371.87" as="sourcePoint"/>
                        <mxPoint x="347.5" y="369.99500000000035" as="targetPoint"/>
                    </mxGeometry>
                </mxCell>
                <mxCell id="29" value="List&amp;lt;Product&amp;gt;" style="text;html=1;align=center;verticalAlign=middle;resizable=0;points=[];autosize=1;strokeColor=none;fillColor=none;" parent="1" vertex="1">
                    <mxGeometry x="583.75" y="340" width="100" height="30" as="geometry"/>
                </mxCell>
                <mxCell id="30" value="" style="rounded=0;whiteSpace=wrap;html=1;rotation=90;" parent="1" vertex="1">
                    <mxGeometry x="96.25" y="473.75" width="487.5" height="10" as="geometry"/>
                </mxCell>
                <mxCell id="31" value="getProduct(productId)" style="text;html=1;align=center;verticalAlign=middle;resizable=0;points=[];autosize=1;strokeColor=none;fillColor=none;" parent="1" vertex="1">
                    <mxGeometry x="345" y="220" width="140" height="30" as="geometry"/>
                </mxCell>
                <mxCell id="32" value="getProduct(productId)" style="text;html=1;align=center;verticalAlign=middle;resizable=0;points=[];autosize=1;strokeColor=none;fillColor=none;" parent="1" vertex="1">
                    <mxGeometry x="930" y="240" width="140" height="30" as="geometry"/>
                </mxCell>
                <mxCell id="33" value="" style="endArrow=none;html=1;exitX=0.428;exitY=0.1;exitDx=0;exitDy=0;exitPerimeter=0;" parent="1" edge="1">
                    <mxGeometry width="50" height="50" relative="1" as="geometry">
                        <mxPoint x="345" y="687.54" as="sourcePoint"/>
                        <mxPoint x="380" y="687.5" as="targetPoint"/>
                    </mxGeometry>
                </mxCell>
                <mxCell id="34" value="" style="endArrow=none;html=1;" parent="1" edge="1">
                    <mxGeometry width="50" height="50" relative="1" as="geometry">
                        <mxPoint x="380" y="687.5" as="sourcePoint"/>
                        <mxPoint x="380" y="707.5" as="targetPoint"/>
                    </mxGeometry>
                </mxCell>
                <mxCell id="35" value="" style="endArrow=classic;html=1;entryX=0.897;entryY=-0.015;entryDx=0;entryDy=0;entryPerimeter=0;" parent="1" edge="1">
                    <mxGeometry width="50" height="50" relative="1" as="geometry">
                        <mxPoint x="380" y="707.5" as="sourcePoint"/>
                        <mxPoint x="345.1500000000001" y="707.4150000000004" as="targetPoint"/>
                    </mxGeometry>
                </mxCell>
                <mxCell id="36" value="Modelにセット" style="text;html=1;align=center;verticalAlign=middle;resizable=0;points=[];autosize=1;strokeColor=none;fillColor=none;" parent="1" vertex="1">
                    <mxGeometry x="345" y="667.5" width="100" height="30" as="geometry"/>
                </mxCell>
                <mxCell id="37" value="" style="endArrow=none;html=1;entryX=0.422;entryY=-0.038;entryDx=0;entryDy=0;entryPerimeter=0;" parent="1" source="100" edge="1">
                    <mxGeometry width="50" height="50" relative="1" as="geometry">
                        <mxPoint x="342.75" y="860" as="sourcePoint"/>
                        <mxPoint x="344.1700000000001" y="1648.1" as="targetPoint"/>
                    </mxGeometry>
                </mxCell>
                <mxCell id="38" value="" style="endArrow=block;startArrow=none;endFill=0;startFill=0;endSize=8;html=1;verticalAlign=bottom;dashed=1;labelBackgroundColor=none;" parent="1" edge="1">
                    <mxGeometry width="160" relative="1" as="geometry">
                        <mxPoint x="340" y="727.5" as="sourcePoint"/>
                        <mxPoint x="210" y="727.5" as="targetPoint"/>
                    </mxGeometry>
                </mxCell>
                <mxCell id="39" value="入力画面" style="text;html=1;align=center;verticalAlign=middle;resizable=0;points=[];autosize=1;strokeColor=none;fillColor=none;" parent="1" vertex="1">
                    <mxGeometry x="240" y="697.5" width="70" height="30" as="geometry"/>
                </mxCell>
                <mxCell id="40" value="" style="endArrow=none;html=1;exitX=0.428;exitY=0.1;exitDx=0;exitDy=0;exitPerimeter=0;" parent="1" edge="1">
                    <mxGeometry width="50" height="50" relative="1" as="geometry">
                        <mxPoint x="210" y="757.8199999999999" as="sourcePoint"/>
                        <mxPoint x="245" y="757.78" as="targetPoint"/>
                    </mxGeometry>
                </mxCell>
                <mxCell id="41" value="" style="endArrow=none;html=1;" parent="1" edge="1">
                    <mxGeometry width="50" height="50" relative="1" as="geometry">
                        <mxPoint x="245" y="757.78" as="sourcePoint"/>
                        <mxPoint x="245" y="777.78" as="targetPoint"/>
                    </mxGeometry>
                </mxCell>
                <mxCell id="42" value="" style="endArrow=classic;html=1;entryX=0.897;entryY=-0.015;entryDx=0;entryDy=0;entryPerimeter=0;" parent="1" edge="1">
                    <mxGeometry width="50" height="50" relative="1" as="geometry">
                        <mxPoint x="245" y="777.78" as="sourcePoint"/>
                        <mxPoint x="210" y="777.78" as="targetPoint"/>
                    </mxGeometry>
                </mxCell>
                <mxCell id="43" value="商品情報入力" style="text;html=1;align=center;verticalAlign=middle;resizable=0;points=[];autosize=1;strokeColor=none;fillColor=none;" parent="1" vertex="1">
                    <mxGeometry x="210" y="735.78" width="100" height="30" as="geometry"/>
                </mxCell>
                <mxCell id="44" value="" style="shape=link;html=1;" parent="1" source="46" edge="1">
                    <mxGeometry width="100" relative="1" as="geometry">
                        <mxPoint x="210" y="220" as="sourcePoint"/>
                        <mxPoint x="2410" y="220" as="targetPoint"/>
                    </mxGeometry>
                </mxCell>
                <mxCell id="45" value="" style="shape=link;html=1;" parent="1" target="46" edge="1">
                    <mxGeometry width="100" relative="1" as="geometry">
                        <mxPoint x="170" y="220" as="sourcePoint"/>
                        <mxPoint x="1410" y="220" as="targetPoint"/>
                    </mxGeometry>
                </mxCell>
                <mxCell id="46" value="入力" style="rounded=0;whiteSpace=wrap;html=1;" parent="1" vertex="1">
                    <mxGeometry x="980" y="210" width="50" height="20" as="geometry"/>
                </mxCell>
                <mxCell id="47" value="" style="shape=link;html=1;" parent="1" source="49" edge="1">
                    <mxGeometry width="100" relative="1" as="geometry">
                        <mxPoint x="150" y="790" as="sourcePoint"/>
                        <mxPoint x="2330" y="790" as="targetPoint"/>
                    </mxGeometry>
                </mxCell>
                <mxCell id="48" value="" style="shape=link;html=1;" parent="1" target="49" edge="1">
                    <mxGeometry width="100" relative="1" as="geometry">
                        <mxPoint x="150" y="790" as="sourcePoint"/>
                        <mxPoint x="1520" y="790" as="targetPoint"/>
                    </mxGeometry>
                </mxCell>
                <mxCell id="49" value="確認" style="whiteSpace=wrap;html=1;" parent="1" vertex="1">
                    <mxGeometry x="820" y="780" width="50" height="20" as="geometry"/>
                </mxCell>
                <mxCell id="51" value="" style="rounded=0;whiteSpace=wrap;html=1;rotation=90;" parent="1" vertex="1">
                    <mxGeometry x="278.13" y="884.38" width="123.75" height="10" as="geometry"/>
                </mxCell>
                <mxCell id="52" value="input" style="text;html=1;align=center;verticalAlign=middle;resizable=0;points=[];autosize=1;strokeColor=none;fillColor=none;" parent="1" vertex="1">
                    <mxGeometry x="247.5" y="240" width="50" height="30" as="geometry"/>
                </mxCell>
                <mxCell id="53" value="" style="endArrow=classic;html=1;" parent="1" edge="1">
                    <mxGeometry width="50" height="50" relative="1" as="geometry">
                        <mxPoint x="210" y="830" as="sourcePoint"/>
                        <mxPoint x="335" y="830" as="targetPoint"/>
                    </mxGeometry>
                </mxCell>
                <mxCell id="54" value="confirm" style="text;html=1;align=center;verticalAlign=middle;resizable=0;points=[];autosize=1;strokeColor=none;fillColor=none;" parent="1" vertex="1">
                    <mxGeometry x="242.5" y="800" width="60" height="30" as="geometry"/>
                </mxCell>
                <mxCell id="55" value="" style="endArrow=none;html=1;entryX=0.54;entryY=1.025;entryDx=0;entryDy=0;entryPerimeter=0;" parent="1" source="76" target="6" edge="1">
                    <mxGeometry width="50" height="50" relative="1" as="geometry">
                        <mxPoint x="739" y="1090" as="sourcePoint"/>
                        <mxPoint x="790" y="200" as="targetPoint"/>
                    </mxGeometry>
                </mxCell>
                <mxCell id="56" value="" style="endArrow=none;html=1;entryX=0.5;entryY=1;entryDx=0;entryDy=0;" parent="1" source="59" target="5" edge="1">
                    <mxGeometry width="50" height="50" relative="1" as="geometry">
                        <mxPoint x="545" y="1070" as="sourcePoint"/>
                        <mxPoint x="870" y="370" as="targetPoint"/>
                    </mxGeometry>
                </mxCell>
                <mxCell id="57" value="" style="endArrow=classic;html=1;" parent="1" edge="1">
                    <mxGeometry width="50" height="50" relative="1" as="geometry">
                        <mxPoint x="345" y="850" as="sourcePoint"/>
                        <mxPoint x="540" y="850" as="targetPoint"/>
                    </mxGeometry>
                </mxCell>
                <mxCell id="58" value="" style="endArrow=none;html=1;" parent="1" target="59" edge="1">
                    <mxGeometry width="50" height="50" relative="1" as="geometry">
                        <mxPoint x="545" y="1590" as="sourcePoint"/>
                        <mxPoint x="545" y="450" as="targetPoint"/>
                    </mxGeometry>
                </mxCell>
                <mxCell id="59" value="" style="rounded=0;whiteSpace=wrap;html=1;rotation=90;direction=east;" parent="1" vertex="1">
                    <mxGeometry x="531.87" y="855.63" width="26.25" height="10" as="geometry"/>
                </mxCell>
                <mxCell id="60" value="商品情報セット" style="text;html=1;align=center;verticalAlign=middle;resizable=0;points=[];autosize=1;strokeColor=none;fillColor=none;" parent="1" vertex="1">
                    <mxGeometry x="395" y="820" width="110" height="30" as="geometry"/>
                </mxCell>
                <mxCell id="61" value="" style="endArrow=none;html=1;exitX=0.428;exitY=0.1;exitDx=0;exitDy=0;exitPerimeter=0;" parent="1" edge="1">
                    <mxGeometry width="50" height="50" relative="1" as="geometry">
                        <mxPoint x="345" y="888.04" as="sourcePoint"/>
                        <mxPoint x="380" y="888" as="targetPoint"/>
                    </mxGeometry>
                </mxCell>
                <mxCell id="62" value="" style="endArrow=none;html=1;" parent="1" edge="1">
                    <mxGeometry width="50" height="50" relative="1" as="geometry">
                        <mxPoint x="380" y="888" as="sourcePoint"/>
                        <mxPoint x="380" y="908" as="targetPoint"/>
                    </mxGeometry>
                </mxCell>
                <mxCell id="63" value="" style="endArrow=classic;html=1;entryX=0.897;entryY=-0.015;entryDx=0;entryDy=0;entryPerimeter=0;" parent="1" edge="1">
                    <mxGeometry width="50" height="50" relative="1" as="geometry">
                        <mxPoint x="380" y="908" as="sourcePoint"/>
                        <mxPoint x="345" y="908" as="targetPoint"/>
                    </mxGeometry>
                </mxCell>
                <mxCell id="64" value="バリデーション" style="text;html=1;align=center;verticalAlign=middle;resizable=0;points=[];autosize=1;strokeColor=none;fillColor=none;" parent="1" vertex="1">
                    <mxGeometry x="370" y="884.38" width="110" height="30" as="geometry"/>
                </mxCell>
                <mxCell id="65" value="確認画面" style="text;html=1;align=center;verticalAlign=middle;resizable=0;points=[];autosize=1;strokeColor=none;fillColor=none;" parent="1" vertex="1">
                    <mxGeometry x="237.5" y="888" width="70" height="30" as="geometry"/>
                </mxCell>
                <mxCell id="66" value="" style="html=1;verticalAlign=bottom;labelBackgroundColor=none;endArrow=block;endFill=1;dashed=1;exitX=1;exitY=0.75;exitDx=0;exitDy=0;" parent="1" source="51" edge="1">
                    <mxGeometry width="160" relative="1" as="geometry">
                        <mxPoint x="320" y="870" as="sourcePoint"/>
                        <mxPoint x="210" y="950" as="targetPoint"/>
                    </mxGeometry>
                </mxCell>
                <mxCell id="67" value="" style="html=1;verticalAlign=bottom;labelBackgroundColor=none;endArrow=open;endFill=0;dashed=1;exitX=1;exitY=1;exitDx=0;exitDy=0;" parent="1" source="59" edge="1">
                    <mxGeometry width="160" relative="1" as="geometry">
                        <mxPoint x="540" y="870" as="sourcePoint"/>
                        <mxPoint x="345" y="874" as="targetPoint"/>
                    </mxGeometry>
                </mxCell>
                <mxCell id="68" value="" style="shape=link;html=1;" parent="1" source="70" edge="1">
                    <mxGeometry width="100" relative="1" as="geometry">
                        <mxPoint x="150" y="965" as="sourcePoint"/>
                        <mxPoint x="2330" y="965" as="targetPoint"/>
                    </mxGeometry>
                </mxCell>
                <mxCell id="69" value="" style="shape=link;html=1;" parent="1" target="70" edge="1">
                    <mxGeometry width="100" relative="1" as="geometry">
                        <mxPoint x="150" y="965" as="sourcePoint"/>
                        <mxPoint x="1520" y="965" as="targetPoint"/>
                    </mxGeometry>
                </mxCell>
                <mxCell id="70" value="完了" style="whiteSpace=wrap;html=1;" parent="1" vertex="1">
                    <mxGeometry x="820" y="955" width="50" height="20" as="geometry"/>
                </mxCell>
                <mxCell id="71" value="" style="endArrow=classic;html=1;entryX=0;entryY=1;entryDx=0;entryDy=0;" parent="1" target="101" edge="1">
                    <mxGeometry width="50" height="50" relative="1" as="geometry">
                        <mxPoint x="210" y="1010" as="sourcePoint"/>
                        <mxPoint x="330" y="1010" as="targetPoint"/>
                    </mxGeometry>
                </mxCell>
                <mxCell id="72" value="execute" style="text;html=1;align=center;verticalAlign=middle;resizable=0;points=[];autosize=1;strokeColor=none;fillColor=none;" parent="1" vertex="1">
                    <mxGeometry x="235" y="980" width="70" height="30" as="geometry"/>
                </mxCell>
                <mxCell id="73" value="" style="rounded=0;whiteSpace=wrap;html=1;direction=south;" parent="1" vertex="1">
                    <mxGeometry x="920" y="250" width="10" height="120" as="geometry"/>
                </mxCell>
                <mxCell id="75" value="" style="endArrow=none;html=1;" parent="1" edge="1">
                    <mxGeometry width="50" height="50" relative="1" as="geometry">
                        <mxPoint x="740" y="1620" as="sourcePoint"/>
                        <mxPoint x="735" y="1036" as="targetPoint"/>
                    </mxGeometry>
                </mxCell>
                <mxCell id="76" value="" style="rounded=0;whiteSpace=wrap;html=1;direction=south;" parent="1" vertex="1">
                    <mxGeometry x="730" y="1020" width="10" height="30" as="geometry"/>
                </mxCell>
                <mxCell id="77" value="" style="html=1;verticalAlign=bottom;labelBackgroundColor=none;endArrow=block;endFill=1;entryX=0;entryY=1;entryDx=0;entryDy=0;" parent="1" target="76" edge="1">
                    <mxGeometry width="160" relative="1" as="geometry">
                        <mxPoint x="345" y="1020" as="sourcePoint"/>
                        <mxPoint x="770" y="1180" as="targetPoint"/>
                    </mxGeometry>
                </mxCell>
                <mxCell id="78" value="FormからEntityの変換" style="text;html=1;align=center;verticalAlign=middle;resizable=0;points=[];autosize=1;strokeColor=none;fillColor=none;" parent="1" vertex="1">
                    <mxGeometry x="350" y="1000" width="140" height="30" as="geometry"/>
                </mxCell>
                <mxCell id="79" value="" style="html=1;verticalAlign=bottom;labelBackgroundColor=none;endArrow=block;endFill=1;dashed=1;exitX=1;exitY=1;exitDx=0;exitDy=0;entryX=0.095;entryY=0.133;entryDx=0;entryDy=0;entryPerimeter=0;" parent="1" source="76" target="101" edge="1">
                    <mxGeometry width="160" relative="1" as="geometry">
                        <mxPoint x="530" y="1130" as="sourcePoint"/>
                        <mxPoint x="350" y="1050" as="targetPoint"/>
                    </mxGeometry>
                </mxCell>
                <mxCell id="80" value="Product" style="text;html=1;align=center;verticalAlign=middle;resizable=0;points=[];autosize=1;strokeColor=none;fillColor=none;" parent="1" vertex="1">
                    <mxGeometry x="360" y="1030" width="60" height="30" as="geometry"/>
                </mxCell>
                <mxCell id="81" value="" style="endArrow=classic;html=1;entryX=0;entryY=1;entryDx=0;entryDy=0;" parent="1" target="86" edge="1">
                    <mxGeometry width="50" height="50" relative="1" as="geometry">
                        <mxPoint x="349" y="1170" as="sourcePoint"/>
                        <mxPoint x="909" y="1170" as="targetPoint"/>
                    </mxGeometry>
                </mxCell>
                <mxCell id="86" value="" style="rounded=0;whiteSpace=wrap;html=1;direction=south;" parent="1" vertex="1">
                    <mxGeometry x="919" y="1170" width="10" height="120" as="geometry"/>
                </mxCell>
                <mxCell id="87" value="update(Product)" style="text;html=1;align=center;verticalAlign=middle;resizable=0;points=[];autosize=1;strokeColor=none;fillColor=none;" parent="1" vertex="1">
                    <mxGeometry x="354" y="1150" width="110" height="30" as="geometry"/>
                </mxCell>
                <mxCell id="89" value="" style="endArrow=classic;html=1;exitX=0.168;exitY=0.137;exitDx=0;exitDy=0;exitPerimeter=0;entryX=0;entryY=1;entryDx=0;entryDy=0;" parent="1" source="86" target="88" edge="1">
                    <mxGeometry width="50" height="50" relative="1" as="geometry">
                        <mxPoint x="1149" y="1110" as="sourcePoint"/>
                        <mxPoint x="1179" y="1188" as="targetPoint"/>
                    </mxGeometry>
                </mxCell>
                <mxCell id="91" value="" style="endArrow=classic;html=1;entryX=0;entryY=1;entryDx=0;entryDy=0;exitX=0.206;exitY=-0.067;exitDx=0;exitDy=0;exitPerimeter=0;" parent="1" source="88" target="117" edge="1">
                    <mxGeometry width="50" height="50" relative="1" as="geometry">
                        <mxPoint x="1559" y="1225" as="sourcePoint"/>
                        <mxPoint x="1669" y="1155" as="targetPoint"/>
                    </mxGeometry>
                </mxCell>
                <mxCell id="92" value="SQL(UPDATE)" style="text;html=1;align=center;verticalAlign=middle;resizable=0;points=[];autosize=1;strokeColor=none;fillColor=none;" parent="1" vertex="1">
                    <mxGeometry x="1634" y="1190" width="100" height="30" as="geometry"/>
                </mxCell>
                <mxCell id="93" value="" style="html=1;verticalAlign=bottom;labelBackgroundColor=none;endArrow=block;endFill=1;dashed=1;entryX=0.659;entryY=-0.017;entryDx=0;entryDy=0;entryPerimeter=0;exitX=1;exitY=1;exitDx=0;exitDy=0;" parent="1" source="117" target="88" edge="1">
                    <mxGeometry width="160" relative="1" as="geometry">
                        <mxPoint x="1724" y="1255" as="sourcePoint"/>
                        <mxPoint x="1559" y="1255" as="targetPoint"/>
                    </mxGeometry>
                </mxCell>
                <mxCell id="94" value="" style="html=1;verticalAlign=bottom;labelBackgroundColor=none;endArrow=block;endFill=1;dashed=1;entryX=0.921;entryY=-0.329;entryDx=0;entryDy=0;entryPerimeter=0;exitX=1;exitY=1;exitDx=0;exitDy=0;" parent="1" source="88" target="86" edge="1">
                    <mxGeometry width="160" relative="1" as="geometry">
                        <mxPoint x="1539" y="1280" as="sourcePoint"/>
                        <mxPoint x="1004" y="1280" as="targetPoint"/>
                    </mxGeometry>
                </mxCell>
                <mxCell id="95" value="" style="html=1;verticalAlign=bottom;labelBackgroundColor=none;endArrow=block;endFill=1;dashed=1;entryX=0.543;entryY=0.083;entryDx=0;entryDy=0;entryPerimeter=0;" parent="1" edge="1">
                    <mxGeometry width="160" relative="1" as="geometry">
                        <mxPoint x="919" y="1290" as="sourcePoint"/>
                        <mxPoint x="343.1700000000001" y="1290.9099999999999" as="targetPoint"/>
                    </mxGeometry>
                </mxCell>
                <mxCell id="96" value="" style="html=1;verticalAlign=bottom;labelBackgroundColor=none;endArrow=open;endFill=0;dashed=1;exitX=1;exitY=1;exitDx=0;exitDy=0;" parent="1" edge="1">
                    <mxGeometry width="160" relative="1" as="geometry">
                        <mxPoint x="332.5" y="1449.999999999999" as="sourcePoint"/>
                        <mxPoint x="207.5" y="1450" as="targetPoint"/>
                    </mxGeometry>
                </mxCell>
                <mxCell id="97" value="リダイレクト" style="text;html=1;align=center;verticalAlign=middle;resizable=0;points=[];autosize=1;strokeColor=none;fillColor=none;" parent="1" vertex="1">
                    <mxGeometry x="225.25" y="1390" width="100" height="30" as="geometry"/>
                </mxCell>
                <mxCell id="98" value="complate" style="text;html=1;align=center;verticalAlign=middle;resizable=0;points=[];autosize=1;strokeColor=none;fillColor=none;" parent="1" vertex="1">
                    <mxGeometry x="240.25" y="1460" width="70" height="30" as="geometry"/>
                </mxCell>
                <mxCell id="99" value="" style="endArrow=none;html=1;entryX=0.366;entryY=0.551;entryDx=0;entryDy=0;entryPerimeter=0;" parent="1" source="51" target="100" edge="1">
                    <mxGeometry width="50" height="50" relative="1" as="geometry">
                        <mxPoint x="340" y="915" as="sourcePoint"/>
                        <mxPoint x="341" y="1478" as="targetPoint"/>
                    </mxGeometry>
                </mxCell>
                <mxCell id="100" value="" style="rounded=0;whiteSpace=wrap;html=1;direction=south;" parent="1" vertex="1">
                    <mxGeometry x="337.75" y="1490" width="10" height="90" as="geometry"/>
                </mxCell>
                <mxCell id="101" value="" style="rounded=0;whiteSpace=wrap;html=1;direction=south;" parent="1" vertex="1">
                    <mxGeometry x="335" y="1010" width="10" height="440" as="geometry"/>
                </mxCell>
                <mxCell id="102" value="" style="html=1;verticalAlign=bottom;labelBackgroundColor=none;endArrow=block;endFill=1;" parent="1" edge="1">
                    <mxGeometry width="160" relative="1" as="geometry">
                        <mxPoint x="212.75" y="1490" as="sourcePoint"/>
                        <mxPoint x="342.75" y="1490" as="targetPoint"/>
                    </mxGeometry>
                </mxCell>
                <mxCell id="103" value="" style="endArrow=none;html=1;exitX=0.428;exitY=0.1;exitDx=0;exitDy=0;exitPerimeter=0;" parent="1" edge="1">
                    <mxGeometry width="50" height="50" relative="1" as="geometry">
                        <mxPoint x="347.75" y="1524.81" as="sourcePoint"/>
                        <mxPoint x="382.75" y="1524.77" as="targetPoint"/>
                    </mxGeometry>
                </mxCell>
                <mxCell id="104" value="" style="endArrow=none;html=1;" parent="1" edge="1">
                    <mxGeometry width="50" height="50" relative="1" as="geometry">
                        <mxPoint x="382.75" y="1524.77" as="sourcePoint"/>
                        <mxPoint x="382.75" y="1544.77" as="targetPoint"/>
                    </mxGeometry>
                </mxCell>
                <mxCell id="105" value="" style="endArrow=classic;html=1;entryX=0.897;entryY=-0.015;entryDx=0;entryDy=0;entryPerimeter=0;" parent="1" edge="1">
                    <mxGeometry width="50" height="50" relative="1" as="geometry">
                        <mxPoint x="382.75" y="1544.77" as="sourcePoint"/>
                        <mxPoint x="347.75" y="1544.77" as="targetPoint"/>
                    </mxGeometry>
                </mxCell>
                <mxCell id="106" value="セッション破棄" style="text;html=1;align=center;verticalAlign=middle;resizable=0;points=[];autosize=1;strokeColor=none;fillColor=none;" parent="1" vertex="1">
                    <mxGeometry x="382.75" y="1520" width="110" height="30" as="geometry"/>
                </mxCell>
                <mxCell id="107" value="" style="html=1;verticalAlign=bottom;labelBackgroundColor=none;endArrow=block;endFill=1;dashed=1;exitX=1;exitY=1;exitDx=0;exitDy=0;" parent="1" source="100" edge="1">
                    <mxGeometry width="160" relative="1" as="geometry">
                        <mxPoint x="282.75" y="1500" as="sourcePoint"/>
                        <mxPoint x="212.75" y="1580" as="targetPoint"/>
                    </mxGeometry>
                </mxCell>
                <mxCell id="108" value="完了画面" style="text;html=1;align=center;verticalAlign=middle;resizable=0;points=[];autosize=1;strokeColor=none;fillColor=none;" parent="1" vertex="1">
                    <mxGeometry x="242.75" y="1580" width="70" height="30" as="geometry"/>
                </mxCell>
                <mxCell id="109" value="product_stock" style="text;html=1;align=center;verticalAlign=middle;resizable=0;points=[];autosize=1;strokeColor=none;fillColor=none;" parent="1" vertex="1">
                    <mxGeometry x="2009.61" y="115" width="100" height="30" as="geometry"/>
                </mxCell>
                <mxCell id="110" value="" style="sketch=0;verticalLabelPosition=bottom;sketch=0;aspect=fixed;html=1;verticalAlign=top;strokeColor=none;fillColor=#000000;align=center;outlineConnect=0;pointerEvents=1;shape=mxgraph.citrix2.site_database;" parent="1" vertex="1">
                    <mxGeometry x="2034.61" y="147.91" width="47.29" height="52.09" as="geometry"/>
                </mxCell>
                <mxCell id="112" value="product" style="text;html=1;align=center;verticalAlign=middle;resizable=0;points=[];autosize=1;strokeColor=none;fillColor=none;" parent="1" vertex="1">
                    <mxGeometry x="1880" y="117.91" width="60" height="30" as="geometry"/>
                </mxCell>
                <mxCell id="113" value="" style="endArrow=none;html=1;" parent="1" source="199" edge="1">
                    <mxGeometry width="50" height="50" relative="1" as="geometry">
                        <mxPoint x="2064.6" y="1475" as="sourcePoint"/>
                        <mxPoint x="2059.61" y="200" as="targetPoint"/>
                        <Array as="points"/>
                    </mxGeometry>
                </mxCell>
                <mxCell id="118" value="Product&lt;br&gt;&lt;div&gt;&lt;div&gt;&lt;div&gt;Repository&lt;/div&gt;&lt;/div&gt;&lt;/div&gt;" style="rounded=0;whiteSpace=wrap;html=1;" parent="1" vertex="1">
                    <mxGeometry x="1380" y="145" width="90" height="55" as="geometry"/>
                </mxCell>
                <mxCell id="119" value="" style="endArrow=block;startArrow=none;endFill=0;startFill=0;endSize=8;html=1;verticalAlign=bottom;dashed=1;labelBackgroundColor=none;exitX=1;exitY=1;exitDx=0;exitDy=0;entryX=0.805;entryY=-0.378;entryDx=0;entryDy=0;entryPerimeter=0;" parent="1" source="122" target="73" edge="1">
                    <mxGeometry width="160" relative="1" as="geometry">
                        <mxPoint x="1170" y="370" as="sourcePoint"/>
                        <mxPoint x="930" y="350" as="targetPoint"/>
                    </mxGeometry>
                </mxCell>
                <mxCell id="120" value="" style="endArrow=none;html=1;exitX=1;exitY=0.5;exitDx=0;exitDy=0;" parent="1" source="198" edge="1">
                    <mxGeometry width="50" height="50" relative="1" as="geometry">
                        <mxPoint x="1440" y="635" as="sourcePoint"/>
                        <mxPoint x="1425" y="1580" as="targetPoint"/>
                    </mxGeometry>
                </mxCell>
                <mxCell id="121" value="" style="endArrow=none;html=1;entryX=0;entryY=0.5;entryDx=0;entryDy=0;exitX=0.5;exitY=1;exitDx=0;exitDy=0;" parent="1" source="118" target="122" edge="1">
                    <mxGeometry width="50" height="50" relative="1" as="geometry">
                        <mxPoint x="1425" y="200" as="sourcePoint"/>
                        <mxPoint x="1435" y="1225" as="targetPoint"/>
                        <Array as="points">
                            <mxPoint x="1425" y="245"/>
                        </Array>
                    </mxGeometry>
                </mxCell>
                <mxCell id="122" value="" style="rounded=0;whiteSpace=wrap;html=1;direction=south;" parent="1" vertex="1">
                    <mxGeometry x="1420" y="270" width="10" height="80" as="geometry"/>
                </mxCell>
                <mxCell id="164" value="Stock&lt;div&gt;&lt;span style=&quot;background-color: transparent;&quot;&gt;Service&lt;/span&gt;&lt;/div&gt;" style="html=1;whiteSpace=wrap;" parent="1" vertex="1">
                    <mxGeometry x="1020" y="140" width="110" height="50" as="geometry"/>
                </mxCell>
                <mxCell id="74" value="" style="rounded=0;whiteSpace=wrap;html=1;direction=south;" parent="1" vertex="1">
                    <mxGeometry x="1902.3" y="285" width="10" height="50" as="geometry"/>
                </mxCell>
                <mxCell id="168" value="" style="sketch=0;verticalLabelPosition=bottom;sketch=0;aspect=fixed;html=1;verticalAlign=top;strokeColor=none;fillColor=#000000;align=center;outlineConnect=0;pointerEvents=1;shape=mxgraph.citrix2.site_database;" parent="1" vertex="1">
                    <mxGeometry x="2204.6" y="147.91" width="47.29" height="52.09" as="geometry"/>
                </mxCell>
                <mxCell id="169" value="&lt;span style=&quot;color: rgb(0, 0, 0);&quot;&gt;product_category&lt;/span&gt;" style="text;html=1;align=center;verticalAlign=middle;resizable=0;points=[];autosize=1;strokeColor=none;fillColor=none;" parent="1" vertex="1">
                    <mxGeometry x="2168.2400000000002" y="115" width="120" height="30" as="geometry"/>
                </mxCell>
                <mxCell id="170" value="" style="endArrow=none;html=1;" parent="1" source="185" edge="1">
                    <mxGeometry width="50" height="50" relative="1" as="geometry">
                        <mxPoint x="2227.6" y="1195" as="sourcePoint"/>
                        <mxPoint x="2227.84" y="203" as="targetPoint"/>
                        <Array as="points"/>
                    </mxGeometry>
                </mxCell>
                <mxCell id="171" value="" style="rounded=0;whiteSpace=wrap;html=1;direction=south;" parent="1" vertex="1">
                    <mxGeometry x="1236" y="542.5" width="10" height="120" as="geometry"/>
                </mxCell>
                <mxCell id="172" value="" style="endArrow=classic;html=1;exitX=0.059;exitY=0.157;exitDx=0;exitDy=0;exitPerimeter=0;entryX=0;entryY=1;entryDx=0;entryDy=0;" parent="1" target="171" edge="1">
                    <mxGeometry width="50" height="50" relative="1" as="geometry">
                        <mxPoint x="345" y="536.5" as="sourcePoint"/>
                        <mxPoint x="487" y="517.5" as="targetPoint"/>
                    </mxGeometry>
                </mxCell>
                <mxCell id="173" value="getCategory()" style="text;html=1;align=center;verticalAlign=middle;resizable=0;points=[];autosize=1;strokeColor=none;fillColor=none;" parent="1" vertex="1">
                    <mxGeometry x="380" y="542.5" width="100" height="30" as="geometry"/>
                </mxCell>
                <mxCell id="174" value="" style="endArrow=classic;html=1;exitX=0.164;exitY=-0.04;exitDx=0;exitDy=0;exitPerimeter=0;entryX=0;entryY=0.75;entryDx=0;entryDy=0;" parent="1" source="171" target="175" edge="1">
                    <mxGeometry width="50" height="50" relative="1" as="geometry">
                        <mxPoint x="537" y="467.5" as="sourcePoint"/>
                        <mxPoint x="797" y="562.5" as="targetPoint"/>
                    </mxGeometry>
                </mxCell>
                <mxCell id="175" value="" style="rounded=0;whiteSpace=wrap;html=1;direction=south;" parent="1" vertex="1">
                    <mxGeometry x="1780" y="562.5" width="10" height="90" as="geometry"/>
                </mxCell>
                <mxCell id="176" value="" style="endArrow=classic;html=1;entryX=0;entryY=1;entryDx=0;entryDy=0;exitX=0.169;exitY=0.007;exitDx=0;exitDy=0;exitPerimeter=0;" parent="1" source="175" target="185" edge="1">
                    <mxGeometry width="50" height="50" relative="1" as="geometry">
                        <mxPoint x="807" y="577.5000000000002" as="sourcePoint"/>
                        <mxPoint x="1092" y="580" as="targetPoint"/>
                    </mxGeometry>
                </mxCell>
                <mxCell id="177" value="" style="endArrow=block;startArrow=none;endFill=0;startFill=0;endSize=8;html=1;verticalAlign=bottom;dashed=1;labelBackgroundColor=none;entryX=0.839;entryY=0.113;entryDx=0;entryDy=0;entryPerimeter=0;exitX=1;exitY=1;exitDx=0;exitDy=0;" parent="1" source="185" target="175" edge="1">
                    <mxGeometry width="160" relative="1" as="geometry">
                        <mxPoint x="1217" y="630.5" as="sourcePoint"/>
                        <mxPoint x="811.0799999999999" y="630.22" as="targetPoint"/>
                    </mxGeometry>
                </mxCell>
                <mxCell id="178" value="SQL(SELECT)" style="text;html=1;align=center;verticalAlign=middle;resizable=0;points=[];autosize=1;strokeColor=none;fillColor=none;" parent="1" vertex="1">
                    <mxGeometry x="1800" y="527.5" width="100" height="30" as="geometry"/>
                </mxCell>
                <mxCell id="179" value="List&amp;lt;Category&amp;gt;" style="text;html=1;align=center;verticalAlign=middle;resizable=0;points=[];autosize=1;strokeColor=none;fillColor=none;" parent="1" vertex="1">
                    <mxGeometry x="1645" y="607.5" width="100" height="30" as="geometry"/>
                </mxCell>
                <mxCell id="180" value="" style="endArrow=block;startArrow=none;endFill=0;startFill=0;endSize=8;html=1;verticalAlign=bottom;dashed=1;labelBackgroundColor=none;exitX=0.889;exitY=1;exitDx=0;exitDy=0;exitPerimeter=0;entryX=0.833;entryY=0;entryDx=0;entryDy=0;entryPerimeter=0;" parent="1" source="175" target="171" edge="1">
                    <mxGeometry width="160" relative="1" as="geometry">
                        <mxPoint x="397" y="447.5" as="sourcePoint"/>
                        <mxPoint x="617" y="637.5" as="targetPoint"/>
                    </mxGeometry>
                </mxCell>
                <mxCell id="181" value="List&amp;lt;Category&amp;gt;" style="text;html=1;align=center;verticalAlign=middle;resizable=0;points=[];autosize=1;strokeColor=none;fillColor=none;" parent="1" vertex="1">
                    <mxGeometry x="1050" y="632.5" width="100" height="30" as="geometry"/>
                </mxCell>
                <mxCell id="182" value="" style="endArrow=block;startArrow=none;endFill=0;startFill=0;endSize=8;html=1;verticalAlign=bottom;dashed=1;labelBackgroundColor=none;exitX=1;exitY=1;exitDx=0;exitDy=0;entryX=0.419;entryY=-0.173;entryDx=0;entryDy=0;entryPerimeter=0;" parent="1" source="171" edge="1">
                    <mxGeometry width="160" relative="1" as="geometry">
                        <mxPoint x="597" y="657.5" as="sourcePoint"/>
                        <mxPoint x="349" y="655.5" as="targetPoint"/>
                    </mxGeometry>
                </mxCell>
                <mxCell id="183" value="List&amp;lt;Category&amp;gt;" style="text;html=1;align=center;verticalAlign=middle;resizable=0;points=[];autosize=1;strokeColor=none;fillColor=none;" parent="1" vertex="1">
                    <mxGeometry x="407" y="622.5" width="100" height="30" as="geometry"/>
                </mxCell>
                <mxCell id="184" value="getAllCategory()" style="text;html=1;align=center;verticalAlign=middle;resizable=0;points=[];autosize=1;strokeColor=none;fillColor=none;" parent="1" vertex="1">
                    <mxGeometry x="1045" y="555" width="110" height="30" as="geometry"/>
                </mxCell>
                <mxCell id="186" value="" style="endArrow=classic;html=1;entryX=0;entryY=1;entryDx=0;entryDy=0;" parent="1" target="196" edge="1">
                    <mxGeometry width="50" height="50" relative="1" as="geometry">
                        <mxPoint x="340" y="390" as="sourcePoint"/>
                        <mxPoint x="917.5" y="390" as="targetPoint"/>
                    </mxGeometry>
                </mxCell>
                <mxCell id="187" value="" style="endArrow=classic;html=1;entryX=0;entryY=0.75;entryDx=0;entryDy=0;exitX=0.142;exitY=0.2;exitDx=0;exitDy=0;exitPerimeter=0;" parent="1" source="196" target="198" edge="1">
                    <mxGeometry width="50" height="50" relative="1" as="geometry">
                        <mxPoint x="935" y="410" as="sourcePoint"/>
                        <mxPoint x="1170" y="410" as="targetPoint"/>
                    </mxGeometry>
                </mxCell>
                <mxCell id="188" value="" style="endArrow=classic;html=1;entryX=0;entryY=1;entryDx=0;entryDy=0;exitX=0.197;exitY=-0.178;exitDx=0;exitDy=0;exitPerimeter=0;" parent="1" source="198" target="199" edge="1">
                    <mxGeometry width="50" height="50" relative="1" as="geometry">
                        <mxPoint x="1560" y="437.5" as="sourcePoint"/>
                        <mxPoint x="1720" y="437.5" as="targetPoint"/>
                    </mxGeometry>
                </mxCell>
                <mxCell id="189" value="" style="endArrow=block;startArrow=none;endFill=0;startFill=0;endSize=8;html=1;verticalAlign=bottom;dashed=1;labelBackgroundColor=none;entryX=0.825;entryY=-0.222;entryDx=0;entryDy=0;entryPerimeter=0;exitX=1;exitY=1;exitDx=0;exitDy=0;" parent="1" source="199" target="198" edge="1">
                    <mxGeometry width="160" relative="1" as="geometry">
                        <mxPoint x="1720" y="486.81" as="sourcePoint"/>
                        <mxPoint x="1560" y="486.81" as="targetPoint"/>
                    </mxGeometry>
                </mxCell>
                <mxCell id="190" value="SQL(SELECT)" style="text;html=1;align=center;verticalAlign=middle;resizable=0;points=[];autosize=1;strokeColor=none;fillColor=none;" parent="1" vertex="1">
                    <mxGeometry x="1455" y="400" width="100" height="30" as="geometry"/>
                </mxCell>
                <mxCell id="192" value="Stock" style="text;html=1;align=center;verticalAlign=middle;resizable=0;points=[];autosize=1;strokeColor=none;fillColor=none;" parent="1" vertex="1">
                    <mxGeometry x="1260" y="453.75" width="50" height="30" as="geometry"/>
                </mxCell>
                <mxCell id="193" value="" style="endArrow=block;startArrow=none;endFill=0;startFill=0;endSize=8;html=1;verticalAlign=bottom;dashed=1;labelBackgroundColor=none;entryX=0.25;entryY=0;entryDx=0;entryDy=0;exitX=1;exitY=0.5;exitDx=0;exitDy=0;" parent="1" source="196" edge="1">
                    <mxGeometry width="160" relative="1" as="geometry">
                        <mxPoint x="920" y="511.87" as="sourcePoint"/>
                        <mxPoint x="347.5" y="509.99500000000035" as="targetPoint"/>
                    </mxGeometry>
                </mxCell>
                <mxCell id="194" value="Stock" style="text;html=1;align=center;verticalAlign=middle;resizable=0;points=[];autosize=1;strokeColor=none;fillColor=none;" parent="1" vertex="1">
                    <mxGeometry x="608.75" y="480" width="50" height="30" as="geometry"/>
                </mxCell>
                <mxCell id="195" value="getStock(Stock)" style="text;html=1;align=center;verticalAlign=middle;resizable=0;points=[];autosize=1;strokeColor=none;fillColor=none;" parent="1" vertex="1">
                    <mxGeometry x="1170" y="380" width="110" height="30" as="geometry"/>
                </mxCell>
                <mxCell id="196" value="" style="rounded=0;whiteSpace=wrap;html=1;direction=south;" parent="1" vertex="1">
                    <mxGeometry x="1070" y="390" width="10" height="120" as="geometry"/>
                </mxCell>
                <mxCell id="197" value="" style="endArrow=block;startArrow=none;endFill=0;startFill=0;endSize=8;html=1;verticalAlign=bottom;dashed=1;labelBackgroundColor=none;exitX=1;exitY=1;exitDx=0;exitDy=0;entryX=0.805;entryY=-0.378;entryDx=0;entryDy=0;entryPerimeter=0;" parent="1" source="198" target="196" edge="1">
                    <mxGeometry width="160" relative="1" as="geometry">
                        <mxPoint x="1170" y="510" as="sourcePoint"/>
                        <mxPoint x="930" y="490" as="targetPoint"/>
                    </mxGeometry>
                </mxCell>
                <mxCell id="200" value="" style="endArrow=none;html=1;" parent="1" source="222" target="199" edge="1">
                    <mxGeometry width="50" height="50" relative="1" as="geometry">
                        <mxPoint x="2064.6" y="1475" as="sourcePoint"/>
                        <mxPoint x="2059.61" y="200" as="targetPoint"/>
                        <Array as="points"/>
                    </mxGeometry>
                </mxCell>
                <mxCell id="199" value="" style="rounded=0;whiteSpace=wrap;html=1;direction=south;" parent="1" vertex="1">
                    <mxGeometry x="2058" y="430" width="10" height="50" as="geometry"/>
                </mxCell>
                <mxCell id="201" value="" style="endArrow=none;html=1;" parent="1" target="185" edge="1">
                    <mxGeometry width="50" height="50" relative="1" as="geometry">
                        <mxPoint x="2228" y="1490" as="sourcePoint"/>
                        <mxPoint x="2227.84" y="203" as="targetPoint"/>
                        <Array as="points"/>
                    </mxGeometry>
                </mxCell>
                <mxCell id="185" value="" style="rounded=0;whiteSpace=wrap;html=1;direction=south;" parent="1" vertex="1">
                    <mxGeometry x="2223.2400000000002" y="577.5" width="10" height="60" as="geometry"/>
                </mxCell>
                <mxCell id="202" value="Category&lt;div&gt;&lt;span style=&quot;background-color: transparent;&quot;&gt;Service&lt;/span&gt;&lt;/div&gt;" style="html=1;whiteSpace=wrap;" parent="1" vertex="1">
                    <mxGeometry x="1190" y="140" width="110" height="50" as="geometry"/>
                </mxCell>
                <mxCell id="203" value="Category&lt;div&gt;&lt;span style=&quot;background-color: transparent;&quot;&gt;Repository&lt;/span&gt;&lt;/div&gt;" style="html=1;whiteSpace=wrap;" parent="1" vertex="1">
                    <mxGeometry x="1730" y="140" width="110" height="50" as="geometry"/>
                </mxCell>
                <mxCell id="205" value="" style="endArrow=none;html=1;exitX=1;exitY=0.5;exitDx=0;exitDy=0;" parent="1" source="122" target="198" edge="1">
                    <mxGeometry width="50" height="50" relative="1" as="geometry">
                        <mxPoint x="1425" y="355" as="sourcePoint"/>
                        <mxPoint x="1425" y="1490" as="targetPoint"/>
                    </mxGeometry>
                </mxCell>
                <mxCell id="198" value="" style="rounded=0;whiteSpace=wrap;html=1;direction=south;" parent="1" vertex="1">
                    <mxGeometry x="1420" y="410" width="10" height="80" as="geometry"/>
                </mxCell>
                <mxCell id="207" value="getAllCategory()" style="text;html=1;align=center;verticalAlign=middle;resizable=0;points=[];autosize=1;strokeColor=none;fillColor=none;" parent="1" vertex="1">
                    <mxGeometry x="1620" y="570" width="110" height="30" as="geometry"/>
                </mxCell>
                <mxCell id="208" value="getStock(Stock)" style="text;html=1;align=center;verticalAlign=middle;resizable=0;points=[];autosize=1;strokeColor=none;fillColor=none;" parent="1" vertex="1">
                    <mxGeometry x="383.75" y="400" width="110" height="30" as="geometry"/>
                </mxCell>
                <mxCell id="209" value="ProductForm" style="text;html=1;align=center;verticalAlign=middle;resizable=0;points=[];autosize=1;strokeColor=none;fillColor=none;" parent="1" vertex="1">
                    <mxGeometry x="440" y="865.63" width="90" height="30" as="geometry"/>
                </mxCell>
                <mxCell id="210" value="" style="endArrow=none;html=1;" parent="1" target="117" edge="1">
                    <mxGeometry width="50" height="50" relative="1" as="geometry">
                        <mxPoint x="1905.6" y="1595" as="sourcePoint"/>
                        <mxPoint x="1905.1000000000001" y="390" as="targetPoint"/>
                        <Array as="points"/>
                    </mxGeometry>
                </mxCell>
                <mxCell id="117" value="" style="rounded=0;whiteSpace=wrap;html=1;direction=south;" parent="1" vertex="1">
                    <mxGeometry x="1899" y="1209" width="10" height="40" as="geometry"/>
                </mxCell>
                <mxCell id="211" value="" style="endArrow=none;html=1;" parent="1" target="88" edge="1">
                    <mxGeometry width="50" height="50" relative="1" as="geometry">
                        <mxPoint x="1604" y="1605" as="sourcePoint"/>
                        <mxPoint x="1603.9999999999998" y="460" as="targetPoint"/>
                    </mxGeometry>
                </mxCell>
                <mxCell id="88" value="" style="rounded=0;whiteSpace=wrap;html=1;direction=south;" parent="1" vertex="1">
                    <mxGeometry x="1599" y="1195" width="10" height="90" as="geometry"/>
                </mxCell>
                <mxCell id="212" value="" style="endArrow=classic;html=1;entryX=0;entryY=1;entryDx=0;entryDy=0;" parent="1" target="213" edge="1">
                    <mxGeometry width="50" height="50" relative="1" as="geometry">
                        <mxPoint x="349" y="1320" as="sourcePoint"/>
                        <mxPoint x="909" y="1320" as="targetPoint"/>
                    </mxGeometry>
                </mxCell>
                <mxCell id="213" value="" style="rounded=0;whiteSpace=wrap;html=1;direction=south;" parent="1" vertex="1">
                    <mxGeometry x="919" y="1320" width="10" height="120" as="geometry"/>
                </mxCell>
                <mxCell id="215" value="" style="endArrow=classic;html=1;exitX=0.168;exitY=0.137;exitDx=0;exitDy=0;exitPerimeter=0;entryX=0;entryY=1;entryDx=0;entryDy=0;" parent="1" source="213" target="223" edge="1">
                    <mxGeometry width="50" height="50" relative="1" as="geometry">
                        <mxPoint x="1149" y="1260" as="sourcePoint"/>
                        <mxPoint x="1179" y="1338" as="targetPoint"/>
                    </mxGeometry>
                </mxCell>
                <mxCell id="217" value="" style="endArrow=classic;html=1;entryX=0;entryY=1;entryDx=0;entryDy=0;exitX=0.206;exitY=-0.067;exitDx=0;exitDy=0;exitPerimeter=0;" parent="1" source="223" target="222" edge="1">
                    <mxGeometry width="50" height="50" relative="1" as="geometry">
                        <mxPoint x="1559" y="1375" as="sourcePoint"/>
                        <mxPoint x="1669" y="1305" as="targetPoint"/>
                    </mxGeometry>
                </mxCell>
                <mxCell id="218" value="SQL(UPDATE)" style="text;html=1;align=center;verticalAlign=middle;resizable=0;points=[];autosize=1;strokeColor=none;fillColor=none;" parent="1" vertex="1">
                    <mxGeometry x="1634" y="1340" width="100" height="30" as="geometry"/>
                </mxCell>
                <mxCell id="219" value="" style="html=1;verticalAlign=bottom;labelBackgroundColor=none;endArrow=block;endFill=1;dashed=1;entryX=0.659;entryY=-0.017;entryDx=0;entryDy=0;entryPerimeter=0;exitX=1;exitY=1;exitDx=0;exitDy=0;" parent="1" source="222" target="223" edge="1">
                    <mxGeometry width="160" relative="1" as="geometry">
                        <mxPoint x="1724" y="1405" as="sourcePoint"/>
                        <mxPoint x="1559" y="1405" as="targetPoint"/>
                    </mxGeometry>
                </mxCell>
                <mxCell id="220" value="" style="html=1;verticalAlign=bottom;labelBackgroundColor=none;endArrow=block;endFill=1;dashed=1;entryX=0.921;entryY=-0.329;entryDx=0;entryDy=0;entryPerimeter=0;exitX=1;exitY=0.75;exitDx=0;exitDy=0;" parent="1" source="223" target="213" edge="1">
                    <mxGeometry width="160" relative="1" as="geometry">
                        <mxPoint x="1539" y="1431" as="sourcePoint"/>
                        <mxPoint x="1004" y="1430" as="targetPoint"/>
                    </mxGeometry>
                </mxCell>
                <mxCell id="221" value="" style="html=1;verticalAlign=bottom;labelBackgroundColor=none;endArrow=block;endFill=1;dashed=1;entryX=0.543;entryY=0.083;entryDx=0;entryDy=0;entryPerimeter=0;" parent="1" edge="1">
                    <mxGeometry width="160" relative="1" as="geometry">
                        <mxPoint x="919" y="1440" as="sourcePoint"/>
                        <mxPoint x="343" y="1441" as="targetPoint"/>
                    </mxGeometry>
                </mxCell>
                <mxCell id="223" value="" style="rounded=0;whiteSpace=wrap;html=1;direction=south;" parent="1" vertex="1">
                    <mxGeometry x="1599" y="1345" width="10" height="90" as="geometry"/>
                </mxCell>
                <mxCell id="224" value="update(Product)" style="text;html=1;align=center;verticalAlign=middle;resizable=0;points=[];autosize=1;strokeColor=none;fillColor=none;" parent="1" vertex="1">
                    <mxGeometry x="949" y="1155" width="110" height="30" as="geometry"/>
                </mxCell>
                <mxCell id="225" value="" style="endArrow=none;html=1;" parent="1" target="222" edge="1">
                    <mxGeometry width="50" height="50" relative="1" as="geometry">
                        <mxPoint x="2063.6" y="1555" as="sourcePoint"/>
                        <mxPoint x="2062" y="560" as="targetPoint"/>
                        <Array as="points"/>
                    </mxGeometry>
                </mxCell>
                <mxCell id="222" value="" style="rounded=0;whiteSpace=wrap;html=1;direction=south;" parent="1" vertex="1">
                    <mxGeometry x="2057" y="1360" width="10" height="40" as="geometry"/>
                </mxCell>
                <mxCell id="226" value="updates(Stock)" style="text;html=1;align=center;verticalAlign=middle;resizable=0;points=[];autosize=1;strokeColor=none;fillColor=none;" parent="1" vertex="1">
                    <mxGeometry x="349" y="1300" width="100" height="30" as="geometry"/>
                </mxCell>
                <mxCell id="227" value="updates(Stock)" style="text;html=1;align=center;verticalAlign=middle;resizable=0;points=[];autosize=1;strokeColor=none;fillColor=none;" parent="1" vertex="1">
                    <mxGeometry x="944" y="1320" width="100" height="30" as="geometry"/>
                </mxCell>
                <mxCell id="231" value="" style="endArrow=none;html=1;exitX=0.428;exitY=0.1;exitDx=0;exitDy=0;exitPerimeter=0;" parent="1" edge="1">
                    <mxGeometry width="50" height="50" relative="1" as="geometry">
                        <mxPoint x="345" y="930.04" as="sourcePoint"/>
                        <mxPoint x="380" y="930" as="targetPoint"/>
                    </mxGeometry>
                </mxCell>
                <mxCell id="232" value="" style="endArrow=none;html=1;" parent="1" edge="1">
                    <mxGeometry width="50" height="50" relative="1" as="geometry">
                        <mxPoint x="380" y="930" as="sourcePoint"/>
                        <mxPoint x="380" y="950" as="targetPoint"/>
                    </mxGeometry>
                </mxCell>
                <mxCell id="233" value="" style="endArrow=classic;html=1;entryX=0.897;entryY=-0.015;entryDx=0;entryDy=0;entryPerimeter=0;" parent="1" edge="1">
                    <mxGeometry width="50" height="50" relative="1" as="geometry">
                        <mxPoint x="380" y="950" as="sourcePoint"/>
                        <mxPoint x="345" y="950" as="targetPoint"/>
                    </mxGeometry>
                </mxCell>
                <mxCell id="234" value="Modelにセット" style="text;html=1;align=center;verticalAlign=middle;resizable=0;points=[];autosize=1;strokeColor=none;fillColor=none;" parent="1" vertex="1">
                    <mxGeometry x="375" y="925" width="100" height="30" as="geometry"/>
                </mxCell>
                <mxCell id="235" value="Stock" style="text;html=1;align=center;verticalAlign=middle;resizable=0;points=[];autosize=1;strokeColor=none;fillColor=none;" parent="1" vertex="1">
                    <mxGeometry x="1470" y="450" width="50" height="30" as="geometry"/>
                </mxCell>
                <mxCell id="237" value="" style="rounded=0;whiteSpace=wrap;html=1;direction=south;" parent="1" vertex="1">
                    <mxGeometry x="730" y="1100" width="10" height="30" as="geometry"/>
                </mxCell>
                <mxCell id="238" value="" style="html=1;verticalAlign=bottom;labelBackgroundColor=none;endArrow=block;endFill=1;entryX=0;entryY=1;entryDx=0;entryDy=0;" parent="1" target="237" edge="1">
                    <mxGeometry width="160" relative="1" as="geometry">
                        <mxPoint x="345" y="1100" as="sourcePoint"/>
                        <mxPoint x="770" y="1260" as="targetPoint"/>
                    </mxGeometry>
                </mxCell>
                <mxCell id="239" value="FormからEntityの変換" style="text;html=1;align=center;verticalAlign=middle;resizable=0;points=[];autosize=1;strokeColor=none;fillColor=none;" parent="1" vertex="1">
                    <mxGeometry x="350" y="1080" width="140" height="30" as="geometry"/>
                </mxCell>
                <mxCell id="240" value="" style="html=1;verticalAlign=bottom;labelBackgroundColor=none;endArrow=block;endFill=1;dashed=1;exitX=1;exitY=1;exitDx=0;exitDy=0;entryX=0.095;entryY=0.133;entryDx=0;entryDy=0;entryPerimeter=0;" parent="1" source="237" edge="1">
                    <mxGeometry width="160" relative="1" as="geometry">
                        <mxPoint x="530" y="1210" as="sourcePoint"/>
                        <mxPoint x="344" y="1132" as="targetPoint"/>
                    </mxGeometry>
                </mxCell>
                <mxCell id="241" value="Stock" style="text;html=1;align=center;verticalAlign=middle;resizable=0;points=[];autosize=1;strokeColor=none;fillColor=none;" parent="1" vertex="1">
                    <mxGeometry x="365" y="1110" width="50" height="30" as="geometry"/>
                </mxCell>
            </root>
        </mxGraphModel>
    </diagram>
</mxfile>